<svg width="32" height="32" viewBox="0 0 32 32" fill="none" xmlns="http://www.w3.org/2000/svg">
  <path fill-rule="evenodd" clip-rule="evenodd"
        d="M22.668 15.9998C27.0862 15.9998 30.668 19.5816 30.668 23.9998C30.668 28.4181 27.0862 31.9998 22.668 31.9998C18.2497 31.9998 14.668 28.4181 14.668 23.9998C14.668 19.5816 18.2497 15.9998 22.668 15.9998ZM22.668 18.6665C19.7225 18.6665 17.3346 21.0543 17.3346 23.9998C17.3346 26.9454 19.7225 29.3332 22.668 29.3332C25.6135 29.3332 28.0013 26.9454 28.0013 23.9998C28.0013 21.0543 25.6135 18.6665 22.668 18.6665ZM22.668 2.6665C23.4043 2.6665 24.0013 3.26346 24.0013 3.99984V5.33317H29.3346L29.3368 17.47C28.5711 16.6881 27.669 16.0403 26.669 15.5651L26.668 14.6665H5.33464V25.3332L13.4293 25.3345C13.5641 26.2759 13.8394 27.172 14.2333 28.0008L2.66797 27.9998V5.33317H8.0013V3.99984C8.0013 3.26346 8.59826 2.6665 9.33464 2.6665C10.071 2.6665 10.668 3.26346 10.668 3.99984V5.33317H21.3346V3.99984C21.3346 3.26346 21.9316 2.6665 22.668 2.6665ZM23.3346 19.9998V23.9192L25.3751 25.9594L23.9609 27.3736L21.3346 24.7474V19.9998H23.3346ZM26.668 7.99984H5.33464V11.9998H26.668V7.99984Z"
        fill="black"/>
</svg>
