<svg width="20" height="20" viewBox="0 0 20 20" fill="none" xmlns="http://www.w3.org/2000/svg">
  <path fill-rule="evenodd" clip-rule="evenodd" d="M10 0C15.5228 0 20 4.47715 20 10C20 15.5228 15.5228 20 10 20C4.47715 20 0 15.5228 0 10C0 4.47715 4.47715 0 10 0ZM10 2C5.58172 2 2 5.58172 2 10C2 14.4183 5.58172 18 10 18C14.4183 18 18 14.4183 18 10C18 5.58172 14.4183 2 10 2ZM6.89722 11.5584C7.47797 12.7384 8.67382 13.5 10.0054 13.5C11.2846 13.5 12.4388 12.7973 13.0426 11.695L13.1052 11.5754L14.8948 12.4683C13.9757 14.3104 12.0966 15.5 10.0054 15.5C7.95612 15.5 6.11104 14.3576 5.17312 12.5796L5.10278 12.4416L6.89722 11.5584ZM6.5 6C7.32843 6 8 6.67157 8 7.5C8 8.32843 7.32843 9 6.5 9C5.67157 9 5 8.32843 5 7.5C5 6.67157 5.67157 6 6.5 6ZM13.5 6C14.3284 6 15 6.67157 15 7.5C15 8.32843 14.3284 9 13.5 9C12.6716 9 12 8.32843 12 7.5C12 6.67157 12.6716 6 13.5 6Z" fill="black"/>
</svg>
