<?xml version="1.0" encoding="UTF-8"?>
<svg width="18px" height="24px" viewBox="0 0 18 24" version="1.1" xmlns="http://www.w3.org/2000/svg" xmlns:xlink="http://www.w3.org/1999/xlink">
    <title>33C5E4CB-9616-4DCF-A95A-B4C4485AE329</title>
    <g stroke="none" stroke-width="1" fill="none" fill-rule="evenodd">
        <g transform="translate(-18.000000, -16.000000)" fill="#000000" fill-rule="nonzero">
            <g transform="translate(18.000000, 16.000000)">
                <path d="M5,17 L7,17 L7,22 L5,24 L5,17 Z M9.462,10.588 C9.708,11.213 9.899,11.978 9.968,13 L2.032,13 C2.329,8.64 4.789,8.837 4.789,5.35 C4.789,3.745 4.267,3 3.517,2 L8.029,2 C8.547,1.193 9.236,0.511 10.048,-4.4408921e-16 L1,-4.4408921e-16 C1,3.656 2.789,2.979 2.789,5.351 C2.789,6.424 2.425,6.941 1.874,7.724 C0.092,10.256 -4.4408921e-16,11.872 -4.4408921e-16,15 L12,15 C12,13.73 11.979,12.713 11.841,11.778 C10.961,11.546 10.153,11.138 9.462,10.588 Z M18,5.5 C18,7.985 15.982,10 13.5,10 C11.016,10 9,7.985 9,5.5 C9,3.015 11.016,1 13.5,1 C15.982,1 18,3.015 18,5.5 L18,5.5 Z M16,5 L14,5 L14,3 L13,3 L13,5 L11,5 L11,6 L13,6 L13,8 L14,8 L14,6 L16,6 L16,5 L16,5 Z"></path>
            </g>
        </g>
    </g>
</svg>
