<svg class="rounded-plus-icon" version="1.2" baseProfile="tiny" xmlns="http://www.w3.org/2000/svg" xmlns:xlink="http://www.w3.org/1999/xlink"
	 x="0px" y="0px" viewBox="0 0 200 200" overflow="visible" xml:space="preserve">
  <g>
    <ellipse transform="matrix(0.7071 -0.7071 0.7071 0.7071 -41.4214 100.0001)" fill="#FFFFFF" cx="100" cy="100" rx="88.5" ry="88.5"/>
    <path d="M100,18.8c44.8,0,81.2,36.4,81.2,81.2s-36.4,81.2-81.2,81.2S18.8,144.8,18.8,100S55.2,18.8,100,18.8
      M100,4.2C47.1,4.2,4.2,47.1,4.2,100s42.9,95.8,95.8,95.8s95.8-42.9,95.8-95.8S152.9,4.2,100,4.2L100,4.2z"/>
  </g>
<line stroke-width="12.2828" stroke-linecap="round" stroke-miterlimit="10" x1="100" y1="49.4" x2="100" y2="150.6"/>
<line stroke-width="12.2828" stroke-linecap="round" stroke-miterlimit="10" x1="150.6" y1="100" x2="49.4" y2="100"/>
</svg>
