<svg width="28" height="28" viewBox="0 0 28 28" fill="none" xmlns="http://www.w3.org/2000/svg">
  <path fill-rule="evenodd" clip-rule="evenodd"
        d="M14.0013 0.666504C21.3651 0.666504 27.3346 6.63604 27.3346 13.9998C27.3346 21.3636 21.3651 27.3332 14.0013 27.3332C6.63751 27.3332 0.667969 21.3636 0.667969 13.9998C0.667969 6.63604 6.63751 0.666504 14.0013 0.666504ZM14.0013 3.33317C8.11026 3.33317 3.33464 8.1088 3.33464 13.9998C3.33464 19.8909 8.11026 24.6665 14.0013 24.6665C19.8923 24.6665 24.668 19.8909 24.668 13.9998C24.668 8.1088 19.8923 3.33317 14.0013 3.33317ZM15.3346 5.99984L15.3355 13.4452L19.6582 17.7711L17.7725 19.6567L13.0585 14.9426L13.0608 14.9412L12.669 14.5516L12.668 5.99984H15.3346Z"
        fill="black"/>
</svg>
