<svg width="28" height="28" viewBox="0 0 28 28" fill="none" xmlns="http://www.w3.org/2000/svg">
  <path fill-rule="evenodd" clip-rule="evenodd"
        d="M14.0013 0.666504C21.3651 0.666504 27.3346 6.63604 27.3346 13.9998C27.3346 21.3636 21.3651 27.3332 14.0013 27.3332C6.63751 27.3332 0.667969 21.3636 0.667969 13.9998C0.667969 6.63604 6.63751 0.666504 14.0013 0.666504ZM7.79501 20.7211C6.90644 20.8141 6.02071 20.9286 5.13942 21.0636C6.47343 22.7364 8.27072 24.0221 10.3368 24.7276C9.29222 23.507 8.43907 22.1598 7.79501 20.7211ZM20.2096 20.7312C19.5668 22.1652 18.7162 23.5078 17.6761 24.7245C19.7322 24.0198 21.5217 22.7406 22.8528 21.0783L21.9242 20.9418C21.3542 20.8631 20.7825 20.7929 20.2096 20.7312ZM15.0018 20.4056L15.0022 24.645C16.2832 23.4422 17.3225 22.0565 18.0908 20.5438C17.0628 20.4696 16.0326 20.424 15.0018 20.4056ZM13.0013 20.4038C12.0186 20.4197 11.0364 20.4602 10.0566 20.5253L9.91539 20.5358C10.6827 22.0488 11.7209 23.435 13.001 24.6384L13.0013 20.4038ZM25.2911 15L21.6125 15.0003C21.5347 16.306 21.3047 17.5802 20.9323 18.8043C21.9755 18.9253 23.0145 19.0742 24.047 19.2503C24.7233 17.9604 25.1579 16.5234 25.2911 15ZM3.94695 19.235L4.01298 19.2233C5.02794 19.053 6.04917 18.9089 7.07465 18.7912C6.70394 17.5719 6.47525 16.3017 6.39768 15.0001L2.7115 15C2.84415 16.5171 3.27571 17.9485 3.94695 19.235ZM15.0013 14.9998L15.0016 18.4075C16.304 18.4302 17.6061 18.4951 18.9035 18.6019C19.2907 17.4482 19.5316 16.2405 19.616 15.0002L15.0013 14.9998ZM13.0013 14.9998L8.39424 15.0002C8.47841 16.2377 8.7184 17.4426 9.10353 18.5944C10.4001 18.4888 11.7006 18.4263 13.0017 18.4058L13.0013 14.9998ZM24.0469 8.74796L23.625 8.82046C22.7315 8.96611 21.8333 9.09148 20.9316 9.1965C21.3048 10.4196 21.5346 11.6937 21.6125 12.9992L25.2911 12.9997C25.1579 11.476 24.7232 10.0388 24.0469 8.74796ZM3.94724 8.76575L3.9237 8.80945C3.26575 10.0843 2.84261 11.5001 2.7115 12.9997L6.39774 12.9992C6.47539 11.6977 6.70414 10.4276 7.07439 9.20715C6.02673 9.08806 4.98361 8.94065 3.94724 8.76575ZM18.9039 9.39743L18.2774 9.44616C17.1877 9.52439 16.0951 9.5731 15.0019 9.59215L15.0013 12.9992L19.6159 12.9994C19.5315 11.7591 19.2906 10.5516 18.9039 9.39743ZM9.10421 9.40652L9.05237 9.56177C8.69717 10.666 8.4747 11.8179 8.39428 12.9994L13.0013 12.9992L13.0015 9.59385C11.7009 9.57338 10.4003 9.51085 9.10421 9.40652ZM13.001 3.36184C11.7207 4.56541 10.6823 5.95192 9.915 7.46527C10.9424 7.53643 11.9718 7.58014 13.0018 7.59678L13.001 3.36184ZM15.0022 3.35524L15.0015 7.59507C16.0327 7.57664 17.0632 7.53107 18.091 7.45835C17.3228 5.94426 16.2835 4.55822 15.0022 3.35524ZM10.3386 3.27093L10.3029 3.28367C8.25052 3.99187 6.46517 5.27306 5.13807 6.93604C6.02002 7.07177 6.90625 7.18638 7.79558 7.28049C8.43983 5.8402 9.29364 4.4921 10.3386 3.27093ZM17.6771 3.27591L17.8669 3.50099C18.8213 4.65748 19.6076 5.92289 20.2109 7.26847C21.0949 7.17416 21.9762 7.0587 22.853 6.9229C21.5225 5.25976 19.7332 3.9805 17.6771 3.27591Z"
        fill="black"/>
</svg>
