<svg width="28" height="28" viewBox="0 0 28 28" fill="none" xmlns="http://www.w3.org/2000/svg">
  <path fill-rule="evenodd" clip-rule="evenodd"
        d="M14.0013 0.666504C21.3651 0.666504 27.3346 6.63604 27.3346 13.9998C27.3346 21.3636 21.3651 27.3332 14.0013 27.3332C6.63751 27.3332 0.667969 21.3636 0.667969 13.9998C0.667969 6.63604 6.63751 0.666504 14.0013 0.666504ZM14.0013 3.33317C8.11026 3.33317 3.33464 8.1088 3.33464 13.9998C3.33464 19.8909 8.11026 24.6665 14.0013 24.6665C19.8923 24.6665 24.668 19.8909 24.668 13.9998C24.668 8.1088 19.8923 3.33317 14.0013 3.33317ZM15.3346 11.3332V19.9998H18.0013V21.9998H10.0013V19.9998H12.668V13.3332H10.0013V11.3332H15.3346ZM13.7513 5.99984C14.7178 5.99984 15.5013 6.7833 15.5013 7.74984C15.5013 8.71631 14.7178 9.49984 13.7513 9.49984C12.7848 9.49984 12.0013 8.71631 12.0013 7.74984C12.0013 6.7833 12.7848 5.99984 13.7513 5.99984Z"
        fill="black"/>
</svg>
