<svg width="135" height="32" viewBox="0 0 135 32" fill="none" xmlns="http://www.w3.org/2000/svg">
    <rect x="0.5" y="0.5" width="134" height="31" rx="15.5" fill="#008741"/>
    <rect x="0.5" y="0.5" width="134" height="31" rx="15.5" stroke="#008741"/>
    <path d="M38.5 25V7H25.5V25L32 20.95L38.5 25Z" stroke="white" stroke-width="2" stroke-linecap="round" stroke-linejoin="round"/>
    <path d="M48.57 11.768V10.312H56.116V11.768H53.148V20H51.524V11.768H48.57ZM58.9219 14.022C57.9139 14.022 57.3399 14.736 57.1579 15.66L55.7719 14.876C56.2059 13.672 57.3959 12.776 58.9359 12.776C60.4619 12.776 61.6939 13.56 61.6939 15.324V18.362C61.6939 19.132 61.7359 19.552 61.8619 20H60.6579C60.4339 19.636 60.3639 19.412 60.3079 19.076H60.2659C59.9579 19.552 59.2859 20.168 58.1799 20.168C56.9059 20.168 55.9539 19.412 55.9539 18.096C55.9539 16.556 57.4099 16.164 58.5859 15.912C59.6079 15.702 60.1819 15.576 60.1819 15.03C60.1819 14.428 59.6359 14.022 58.9219 14.022ZM60.2379 17.298V16.346C60.0279 16.654 59.5799 16.822 58.9359 16.976C58.2079 17.144 57.4659 17.326 57.4659 18.026C57.4659 18.558 57.8439 18.936 58.5719 18.936C59.4399 18.936 60.2379 18.334 60.2379 17.298ZM63.4647 20V9.864H65.0327V20H63.4647ZM66.8553 20V9.864H68.4233V20H66.8553ZM76.1119 16.864H71.3519C71.4359 18.11 72.1219 18.95 73.1859 18.95C74.0679 18.95 74.6419 18.334 74.7679 17.55L76.1399 18.348C75.7059 19.3 74.6419 20.168 73.1859 20.168C71.1839 20.168 69.8679 18.712 69.8679 16.472C69.8679 14.26 71.2539 12.776 73.1579 12.776C75.0199 12.776 76.2099 14.12 76.2099 15.996C76.2099 16.514 76.1119 16.864 76.1119 16.864ZM73.1579 13.966C72.2059 13.966 71.5619 14.68 71.3939 15.744H74.7259C74.7259 14.778 74.1379 13.966 73.1579 13.966ZM83.5791 15.534V20H82.0251V15.828C82.0251 14.652 81.5771 14.12 80.6951 14.12C79.7431 14.12 79.1691 14.876 79.1691 15.856V20H77.6151V12.944H79.1691L79.0851 14.148H79.1131C79.4211 13.518 80.0651 12.776 81.2691 12.776C82.6831 12.776 83.5791 13.728 83.5791 15.534ZM91.3174 15.534V20H89.7634V15.828C89.7634 14.652 89.3154 14.12 88.4334 14.12C87.4814 14.12 86.9074 14.876 86.9074 15.856V20H85.3534V12.944H86.9074L86.8234 14.148H86.8514C87.1594 13.518 87.8034 12.776 89.0074 12.776C90.4214 12.776 91.3174 13.728 91.3174 15.534ZM95.8496 14.022C94.8416 14.022 94.2676 14.736 94.0856 15.66L92.6996 14.876C93.1336 13.672 94.3236 12.776 95.8636 12.776C97.3896 12.776 98.6216 13.56 98.6216 15.324V18.362C98.6216 19.132 98.6636 19.552 98.7896 20H97.5856C97.3616 19.636 97.2916 19.412 97.2356 19.076H97.1936C96.8856 19.552 96.2136 20.168 95.1076 20.168C93.8336 20.168 92.8816 19.412 92.8816 18.096C92.8816 16.556 94.3376 16.164 95.5136 15.912C96.5356 15.702 97.1096 15.576 97.1096 15.03C97.1096 14.428 96.5636 14.022 95.8496 14.022ZM97.1656 17.298V16.346C96.9556 16.654 96.5076 16.822 95.8636 16.976C95.1356 17.144 94.3936 17.326 94.3936 18.026C94.3936 18.558 94.7716 18.936 95.4996 18.936C96.3676 18.936 97.1656 18.334 97.1656 17.298Z" fill="white"/>
</svg>
