<svg width="135" height="32" viewBox="0 0 135 32" fill="none" xmlns="http://www.w3.org/2000/svg">
    <rect x="0.5" y="0.5" width="134" height="31" rx="15.5" fill="#008741"/>
    <rect x="0.5" y="0.5" width="134" height="31" rx="15.5" stroke="#008741"/>
    <path d="M38.5 25V7H25.5V25L32 20.95L38.5 25Z" stroke="white" stroke-width="2" stroke-linecap="round" stroke-linejoin="round"/>
    <path d="M48.57 11.768V10.312H56.116V11.768H53.148V20H51.524V11.768H48.57ZM58.9219 14.022C57.9139 14.022 57.3399 14.736 57.1579 15.66L55.7719 14.876C56.2059 13.672 57.3959 12.776 58.9359 12.776C60.4619 12.776 61.6939 13.56 61.6939 15.324V18.362C61.6939 19.132 61.7359 19.552 61.8619 20H60.6579C60.4339 19.636 60.3639 19.412 60.3079 19.076H60.2659C59.9579 19.552 59.2859 20.168 58.1799 20.168C56.9059 20.168 55.9539 19.412 55.9539 18.096C55.9539 16.556 57.4099 16.164 58.5859 15.912C59.6079 15.702 60.1819 15.576 60.1819 15.03C60.1819 14.428 59.6359 14.022 58.9219 14.022ZM60.2379 17.298V16.346C60.0279 16.654 59.5799 16.822 58.9359 16.976C58.2079 17.144 57.4659 17.326 57.4659 18.026C57.4659 18.558 57.8439 18.936 58.5719 18.936C59.4399 18.936 60.2379 18.334 60.2379 17.298ZM63.4647 20V9.864H65.0327V20H63.4647ZM66.8553 20V9.864H68.4233V20H66.8553ZM76.1119 16.864H71.3519C71.4359 18.11 72.1219 18.95 73.1859 18.95C74.0679 18.95 74.6419 18.334 74.7679 17.55L76.1399 18.348C75.7059 19.3 74.6419 20.168 73.1859 20.168C71.1839 20.168 69.8679 18.712 69.8679 16.472C69.8679 14.26 71.2539 12.776 73.1579 12.776C75.0199 12.776 76.2099 14.12 76.2099 15.996C76.2099 16.514 76.1119 16.864 76.1119 16.864ZM73.1579 13.966C72.2059 13.966 71.5619 14.68 71.3939 15.744H74.7259C74.7259 14.778 74.1379 13.966 73.1579 13.966ZM83.5791 15.534V20H82.0251V15.828C82.0251 14.652 81.5771 14.12 80.6951 14.12C79.7431 14.12 79.1691 14.876 79.1691 15.856V20H77.6151V12.944H79.1691L79.0851 14.148H79.1131C79.4211 13.518 80.0651 12.776 81.2691 12.776C82.6831 12.776 83.5791 13.728 83.5791 15.534ZM91.3174 15.534V20H89.7634V15.828C89.7634 14.652 89.3154 14.12 88.4334 14.12C87.4814 14.12 86.9074 14.876 86.9074 15.856V20H85.3534V12.944H86.9074L86.8234 14.148H86.8514C87.1594 13.518 87.8034 12.776 89.0074 12.776C90.4214 12.776 91.3174 13.728 91.3174 15.534ZM98.9576 16.864H94.1976C94.2816 18.11 94.9676 18.95 96.0316 18.95C96.9136 18.95 97.4876 18.334 97.6136 17.55L98.9856 18.348C98.5516 19.3 97.4876 20.168 96.0316 20.168C94.0296 20.168 92.7136 18.712 92.7136 16.472C92.7136 14.26 94.0996 12.776 96.0036 12.776C97.8656 12.776 99.0556 14.12 99.0556 15.996C99.0556 16.514 98.9576 16.864 98.9576 16.864ZM96.0036 13.966C95.0516 13.966 94.4076 14.68 94.2396 15.744H97.5716C97.5716 14.778 96.9836 13.966 96.0036 13.966ZM108.344 18.32L109.03 19.496C108.778 19.776 108.19 20.168 107.42 20.168C106.37 20.168 105.6 19.664 105.6 18.208V14.19H104.48V12.944H105.6V11.418L107.126 10.508V12.944H108.848V14.19H107.126V18.068C107.126 18.67 107.308 18.88 107.686 18.88C108.036 18.88 108.246 18.558 108.344 18.32ZM103.612 18.32L104.298 19.496C104.06 19.776 103.472 20.168 102.702 20.168C101.652 20.168 100.882 19.664 100.882 18.208V14.19H99.6644V12.944H100.882V11.418L102.394 10.508V12.944H103.836V14.19H102.394V18.068C102.394 18.67 102.59 18.88 102.954 18.88C103.304 18.88 103.514 18.558 103.612 18.32ZM110.03 17.41V12.944H111.584V17.116C111.584 18.292 111.976 18.824 112.858 18.824C113.824 18.824 114.342 18.026 114.342 17.018V12.944H115.896V20H114.342L114.44 18.796H114.398C114.09 19.426 113.488 20.168 112.298 20.168C110.884 20.168 110.03 19.216 110.03 17.41Z" fill="white"/>
</svg>
